# xmcd
#
# Track frame offsets:
#	150
#	24408
#	51487
#	78874
#	101417
#	122979
#	147328
#	171425
#	195883
#	219058
#	247601
#	265839
#	281094
#
# Disc length: 4079 seconds
#
# Revision: 1
# Processed by: cddbd v1.5.2PL0 Copyright (c) Steve Scherf et al.
# Submitted via: audiograbber 1.83.01
#
DISCID=ad0fed0d
DTITLE=Tereszinha Araujo - Nos Riqueza
DYEAR=2006
DGENRE=World
TTITLE0=Africa Raiz
TTITLE1=Tera na tchora pena
TTITLE2=Tia Xica Caioio
TTITLE3=Carta de contratado
TTITLE4=N'na nega bedjo
TTITLE5=Mae
TTITLE6=Nos riqueza
TTITLE7=Minino di criacon
TTITLE8=Monami
TTITLE9=I son sodade
TTITLE10=Guerrilheiro
TTITLE11=Minha Avo Maria
TTITLE12=Fidjo Magoado
EXTD=
EXTT0=
EXTT1=
EXTT2=
EXTT3=
EXTT4=
EXTT5=
EXTT6=
EXTT7=
EXTT8=
EXTT9=
EXTT10=
EXTT11=
EXTT12=
PLAYORDER=
